<?xml version="1.0" encoding="iso-8859-1"?>
<!-- Uploaded to: SVG Repo, www.svgrepo.com, Generator: SVG Repo Mixer Tools -->
<svg version="1.1" id="Layer_1" xmlns="http://www.w3.org/2000/svg" xmlns:xlink="http://www.w3.org/1999/xlink" 
	 viewBox="0 0 511.998 511.998" xml:space="preserve">
<g>
	<rect x="66.004" y="99.213" style="fill:#FEE187;" width="379.99" height="70.844"/>
	<polygon style="fill:#FEE187;" points="414.083,99.21 97.917,99.21 144.099,15.384 367.901,15.384 	"/>
</g>
<path style="fill:#FFC61B;" d="M445.994,185.438c8.495,0,15.384-6.889,15.384-15.384V99.208c0-8.495-6.889-15.384-15.384-15.384
	H423.17L381.374,7.961C378.67,3.049,373.507,0,367.901,0H144.099c-5.608,0-10.769,3.049-13.475,7.961L88.83,83.824H66.004
	c-8.495,0-15.384,6.889-15.384,15.384v70.846c0,8.495,6.889,15.384,15.384,15.384h11.492l4.037,46.074H67.437
	c-4.314,0-8.429,1.811-11.343,4.991c-2.915,3.18-4.358,7.438-3.983,11.737l15.364,175.38c0.695,7.944,7.349,14.041,15.326,14.041
	h16.792l5.281,60.295c0.695,7.946,7.349,14.043,15.326,14.043h271.597c7.977,0,14.63-6.097,15.326-14.043l5.281-60.295h16.792
	c7.977,0,14.63-6.097,15.326-14.041l15.364-175.38c0.375-4.298-1.068-8.557-3.983-11.737c-2.914-3.18-7.029-4.991-11.343-4.991
	h-82.41c-8.495,0-15.384,6.889-15.384,15.384s6.889,15.384,15.384,15.384h65.62l-12.669,144.612h-17c-0.009,0-0.018,0-0.028,0
	H96.897L84.228,262.281h14.047c0.011,0,0.022,0.002,0.032,0.002c0.011,0,0.023-0.002,0.034-0.002h167.402
	c8.495,0,15.384-6.889,15.384-15.384s-6.889-15.384-15.384-15.384H112.42l-4.037-46.074H445.994z M377.704,481.232H134.296
	l-3.815-43.57H381.52L377.704,481.232z M153.188,30.768H358.81l29.23,53.055H123.958L153.188,30.768z M81.389,114.592h16.529
	h316.164h0.031h16.5v40.077H91.858c-0.026,0-0.052,0-0.078,0h-10.39V114.592z"/>
</svg>